HIERARCHY
ROOT Hips
{
	OFFSET 0.000000 0.000000 0.990480
	CHANNELS 6 Xposition Yposition Zposition Xrotation Yrotation Zrotation
	JOINT Spine
	{
		OFFSET 0.000000 0.000000 0.099820
		CHANNELS 6 Xposition Yposition Zposition Xrotation Yrotation Zrotation
		JOINT Chest
		{
			OFFSET 0.000000 0.000000 0.152175
			CHANNELS 6 Xposition Yposition Zposition Xrotation Yrotation Zrotation
			JOINT Neck
			{
				OFFSET 0.000000 0.000000 0.337083
				CHANNELS 6 Xposition Yposition Zposition Xrotation Yrotation Zrotation
				JOINT Head
				{
					OFFSET 0.000000 0.000000 0.150550
					CHANNELS 3 Xrotation Yrotation Zrotation
					End Site
					{
						OFFSET 0.000000 0.000000 0.164719
					}
				}
			}
			JOINT RightShoulder
			{
				OFFSET -0.043277 0.000000 0.228616
				CHANNELS 6 Xposition Yposition Zposition Xrotation Yrotation Zrotation
				JOINT RightArm
				{
					OFFSET -0.105461 0.000000 0.000004
					CHANNELS 6 Xposition Yposition Zposition Xrotation Yrotation Zrotation
					JOINT RightForeArm
					{
						OFFSET -0.247377 0.000000 0.000009
						CHANNELS 6 Xposition Yposition Zposition Xrotation Yrotation Zrotation
						JOINT RightHand
						{
							OFFSET -0.262149 0.000000 0.000009
							CHANNELS 6 Xposition Yposition Zposition Xrotation Yrotation Zrotation
							JOINT RightHandIndex1
							{
								OFFSET -0.082535 -0.029415 0.000003
								CHANNELS 3 Xrotation Yrotation Zrotation
								JOINT RightHandIndex2
								{
									OFFSET -0.033301 -0.004409 0.000001
									CHANNELS 3 Xrotation Yrotation Zrotation
									JOINT RightHandIndex3
									{
										OFFSET -0.025492 -0.003784 0.000001
										CHANNELS 3 Xrotation Yrotation Zrotation
										End Site
										{
											OFFSET -0.043285 -0.003344 0.000001
										}
									}
								}
							}
							JOINT RightHandMiddle1
							{
								OFFSET -0.088557 -0.008155 0.000003
								CHANNELS 3 Xrotation Yrotation Zrotation
								JOINT RightHandMiddle2
								{
									OFFSET -0.034042 -0.001186 0.000001
									CHANNELS 3 Xrotation Yrotation Zrotation
									JOINT RightHandMiddle3
									{
										OFFSET -0.026773 -0.000599 0.000000
										CHANNELS 3 Xrotation Yrotation Zrotation
										End Site
										{
											OFFSET -0.052615 -0.002366 0.000002
										}
									}
								}
							}
							JOINT RightHandRing1
							{
								OFFSET -0.085632 0.009333 0.000003
								CHANNELS 3 Xrotation Yrotation Zrotation
								JOINT RightHandRing2
								{
									OFFSET -0.029113 0.002339 0.000001
									CHANNELS 3 Xrotation Yrotation Zrotation
									JOINT RightHandRing3
									{
										OFFSET -0.027037 0.001866 0.000001
										CHANNELS 3 Xrotation Yrotation Zrotation
										End Site
										{
											OFFSET -0.048310 0.000687 0.000001
										}
									}
								}
							}
							JOINT RightHandPinky1
							{
								OFFSET -0.076599 0.027405 0.000003
								CHANNELS 3 Xrotation Yrotation Zrotation
								JOINT RightHandPinky2
								{
									OFFSET -0.032445 0.007645 0.000002
									CHANNELS 3 Xrotation Yrotation Zrotation
									JOINT RightHandPinky3
									{
										OFFSET -0.019101 0.004136 0.000001
										CHANNELS 3 Xrotation Yrotation Zrotation
										End Site
										{
											OFFSET -0.036478 0.003212 0.000001
										}
									}
								}
							}
							JOINT RightHandThumb1
							{
								OFFSET -0.018894 -0.029252 0.000001
								CHANNELS 3 Xrotation Yrotation Zrotation
								JOINT RightHandThumb2
								{
									OFFSET -0.024834 -0.023384 0.000001
									CHANNELS 3 Xrotation Yrotation Zrotation
									JOINT RightHandThumb3
									{
										OFFSET -0.024730 -0.013883 0.000001
										CHANNELS 3 Xrotation Yrotation Zrotation
										End Site
										{
											OFFSET -0.036269 -0.015625 0.000001
										}
									}
								}
							}
						}
					}
				}
			}
			JOINT LeftShoulder
			{
				OFFSET 0.043336 0.000000 0.228616
				CHANNELS 6 Xposition Yposition Zposition Xrotation Yrotation Zrotation
				JOINT LeftArm
				{
					OFFSET 0.105402 0.000000 0.000018
					CHANNELS 6 Xposition Yposition Zposition Xrotation Yrotation Zrotation
					JOINT LeftForeArm
					{
						OFFSET 0.248086 -0.001017 0.000042
						CHANNELS 6 Xposition Yposition Zposition Xrotation Yrotation Zrotation
						JOINT LeftHand
						{
							OFFSET 0.262001 0.000000 0.000044
							CHANNELS 6 Xposition Yposition Zposition Xrotation Yrotation Zrotation
							JOINT LeftHandIndex1
							{
								OFFSET 0.082507 -0.030061 -0.000028
								CHANNELS 3 Xrotation Yrotation Zrotation
								JOINT LeftHandIndex2
								{
									OFFSET 0.033280 -0.004602 0.000048
									CHANNELS 3 Xrotation Yrotation Zrotation
									JOINT LeftHandIndex3
									{
										OFFSET 0.025464 -0.003944 0.000004
										CHANNELS 3 Xrotation Yrotation Zrotation
										End Site
										{
											OFFSET 0.043236 -0.003593 0.000007
										}
									}
								}
							}
							JOINT LeftHandMiddle1
							{
								OFFSET 0.088481 -0.008664 0.000015
								CHANNELS 3 Xrotation Yrotation Zrotation
								JOINT LeftHandMiddle2
								{
									OFFSET 0.034019 -0.001373 0.000006
									CHANNELS 3 Xrotation Yrotation Zrotation
									JOINT LeftHandMiddle3
									{
										OFFSET 0.026769 -0.000745 0.000005
										CHANNELS 3 Xrotation Yrotation Zrotation
										End Site
										{
											OFFSET 0.052542 -0.002648 0.000009
										}
									}
								}
							}
							JOINT LeftHandRing1
							{
								OFFSET 0.085626 0.008930 0.000014
								CHANNELS 3 Xrotation Yrotation Zrotation
								JOINT LeftHandRing2
								{
									OFFSET 0.029129 0.002221 0.000005
									CHANNELS 3 Xrotation Yrotation Zrotation
									JOINT LeftHandRing3
									{
										OFFSET 0.027049 0.001739 0.000005
										CHANNELS 3 Xrotation Yrotation Zrotation
										End Site
										{
											OFFSET 0.048215 0.000435 0.000008
										}
									}
								}
							}
							JOINT LeftHandPinky1
							{
								OFFSET 0.076700 0.027168 0.000013
								CHANNELS 3 Xrotation Yrotation Zrotation
								JOINT LeftHandPinky2
								{
									OFFSET 0.032485 0.007539 0.000005
									CHANNELS 3 Xrotation Yrotation Zrotation
									JOINT LeftHandPinky3
									{
										OFFSET 0.019121 0.004064 0.000003
										CHANNELS 3 Xrotation Yrotation Zrotation
										End Site
										{
											OFFSET 0.036502 0.003032 0.000006
										}
									}
								}
							}
							JOINT LeftHandThumb1
							{
								OFFSET 0.018711 -0.029540 0.000003
								CHANNELS 3 Xrotation Yrotation Zrotation
								JOINT LeftHandThumb2
								{
									OFFSET 0.024721 -0.023664 0.000004
									CHANNELS 3 Xrotation Yrotation Zrotation
									JOINT LeftHandThumb3
									{
										OFFSET 0.024649 -0.014096 0.000004
										CHANNELS 3 Xrotation Yrotation Zrotation
										End Site
										{
											OFFSET 0.036243 -0.015928 0.000006
										}
									}
								}
							}
						}
					}
				}
			}
		}
	}
	JOINT RightUpLeg
	{
		OFFSET -0.115000 0.000000 -0.015985
		CHANNELS 6 Xposition Yposition Zposition Xrotation Yrotation Zrotation
		JOINT RightLeg
		{
			OFFSET 0.000000 0.000000 -0.417140
			CHANNELS 6 Xposition Yposition Zposition Xrotation Yrotation Zrotation
			JOINT RightFoot
			{
				OFFSET 0.000000 0.000000 -0.438030
				CHANNELS 3 Xrotation Yrotation Zrotation
				JOINT RightToeBase
				{
					OFFSET 0.000000 -0.104620 -0.083528
					CHANNELS 6 Xposition Yposition Zposition Xrotation Yrotation Zrotation
					End Site
					{
						OFFSET 0.000000 -0.133871 -0.000951
					}
				}
			}
		}
	}
	JOINT LeftUpLeg
	{
		OFFSET 0.115000 0.000000 -0.015985
		CHANNELS 6 Xposition Yposition Zposition Xrotation Yrotation Zrotation
		JOINT LeftLeg
		{
			OFFSET 0.000000 0.000000 -0.417140
			CHANNELS 6 Xposition Yposition Zposition Xrotation Yrotation Zrotation
			JOINT LeftFoot
			{
				OFFSET 0.000000 0.000000 -0.438030
				CHANNELS 3 Xrotation Yrotation Zrotation
				JOINT LeftToeBase
				{
					OFFSET 0.000000 -0.104620 -0.083528
					CHANNELS 6 Xposition Yposition Zposition Xrotation Yrotation Zrotation
					End Site
					{
						OFFSET 0.000000 -0.133871 -0.000951
					}
				}
			}
		}
	}
}
MOTION
Frames: 5
Frame Time:	0.016667
0.7267 0.1214 0.9181 -4.81 4.9221 -29.5479 0 -0.0004 0.0994 10.0815 0.997 0.1517 0.0001 -0.0016 0.1523 13.6478 2.054 0.8059 0 0.0018 0.2917 0.0203 1.362 13.7317 -31.1422 -3.5493 13.6876 -0.0433 0.0018 0.2353 7.858 -20.8188 -1.2047 -0.1055 0 0 12.912 -41.075 24.7117 -0.2672 0 0 -7.6853 -3.8817 40.2571 -0.2831 0 0 24.6752 -0.5148 15.9159 28.2595 -63.7493 33.6832 35.3743 -79.615 32.4468 9.5594 -64.772 7.6286 5.2722 -53.0071 6.9489 2.7136 -73.4887 2.3439 2.3181 -71.5078 1.9668 -9.5279 -65.1241 -4.7596 -10.0184 -75.4959 -8.8164 -15.0338 -79.4926 -13.7161 -0.661 -25.4209 -2.3744 -7.8333 -38.6824 -2.7984 -6.1815 -33.5306 -1.824 12.1224 -22.1547 -0.0349 -0.0039 0.0019 -23.923 -0.0042 0.0028 -51.1302 0.0433 0.0018 0.2353 8.2096 21.0741 4.6157 0.1054 0 0 9.2095 41.6437 -2.9089 0.2667 -0.0011 0 -4.6122 5.9277 -63.5291 0.2817 0 0 22.1199 -3.612 -3.6945 27.6648 63.1945 -32.9424 35.18 79.1856 -32.1495 9.9482 64.7228 -7.9353 4.0637 48.6461 -4.7545 2.7753 71.0108 -2.3438 2.4802 69.51 -2.0661 -8.1329 62.8351 3.9718 -9.4135 74.8694 8.0553 -13.5837 78.7556 12.1177 -5.5887 42.482 -1.7355 -20.9331 61.8522 13.0492 -22.2019 63.0759 14.1744 12.1292 21.9526 -0.5169 -0.0037 -0.0007 23.0023 -0.007 -0.0039 50.0081 -0.115 0 -0.016 10.4358 -15.6597 -7.3731 0 0 -0.4171 30.9962 -1.4574 0.4046 -31.8564 -15.7065 -7.7588 0 -0.1046 -0.0835 0 0 0 0.115 0 -0.016 -10.3489 8.6951 20.1684 0 0 -0.4171 35.0149 2.9716 -0.9414 -17.1068 -17.493 25.0499 0 -0.1046 -0.0835 -3.8052 0.0004 0.0011 
0.7391 0.1249 0.9165 -4.686 4.7467 -29.7005 0 -0.0004 0.0996 10.0954 1.0155 0.1879 0.0001 -0.0016 0.1524 13.66 2.0534 0.9172 0 0.0017 0.2919 0.0091 1.3097 13.6954 -31.257 -3.3415 13.6733 -0.0433 0.0017 0.2353 7.8095 -20.7698 -1.1899 -0.1055 0 0 12.8247 -40.9652 24.9384 -0.2672 0 0 -7.8225 -3.842 39.9215 -0.2831 0 0 24.5491 -0.3207 16.2228 28.2596 -63.7493 33.6833 35.3742 -79.6149 32.4468 9.5595 -64.772 7.6286 5.2718 -53.0064 6.9479 2.7134 -73.4872 2.3436 2.3177 -71.5055 1.9663 -9.5279 -65.124 -4.76 -10.018 -75.4957 -8.8161 -15.0335 -79.4924 -13.7158 -0.6589 -25.418 -2.3881 -7.8314 -38.6765 -2.7972 -6.1779 -33.5186 -1.822 12.1224 -22.1547 -0.0349 -0.0039 0.0019 -23.923 -0.0042 0.0028 -51.1302 0.0433 0.0017 0.2353 8.1877 21.0447 4.4782 0.1054 0 0 9.3687 41.6073 -3.5517 0.2667 -0.0011 0 -4.6274 5.7719 -63.2455 0.2817 0 0 22.3843 -3.6464 -3.7389 27.6647 63.1944 -32.9424 35.1801 79.1856 -32.1495 9.9482 64.7228 -7.9353 4.0638 48.6459 -4.7549 2.7749 71.0091 -2.3435 2.4804 69.5111 -2.0664 -8.1331 62.8352 3.972 -9.4133 74.8692 8.0551 -13.5837 78.7556 12.1178 -5.5888 42.4826 -1.7359 -20.9318 61.8509 13.0481 -22.2046 63.0785 14.1768 12.1292 21.9526 -0.5169 -0.0037 -0.0007 23.0023 -0.007 -0.0039 50.0081 -0.115 0 -0.016 9.2208 -15.1033 -7.1385 0 0 -0.4171 31.8782 -1.7284 0.4935 -32.9431 -11.6326 -7.1947 0 -0.1046 -0.0835 0 0 0 0.115 0 -0.016 -11.3277 9.2993 20.292 0 0 -0.4171 35.1778 2.9796 -0.9476 -16.3404 -17.4965 25.2771 0 -0.1046 -0.0835 -4.1849 0.001 0.0022 
0.7474 0.1274 0.9155 -4.6136 4.5679 -29.7456 0 -0.0004 0.0996 10.0404 1.1245 0.2026 0.0001 -0.0016 0.1525 13.5829 2.174 0.9771 0 0.0017 0.292 0.004 1.2585 13.6481 -31.2023 -3.3496 13.585 -0.0433 0.0017 0.2353 7.8288 -20.7925 -1.1698 -0.1055 0 0 12.8514 -41.0499 25.0658 -0.2672 0 0 -7.8714 -3.8735 39.6945 -0.2831 0 0 24.4728 -0.0687 16.4133 28.2595 -63.7493 33.6833 35.3741 -79.615 32.4467 9.5594 -64.772 7.6286 5.2713 -53.0055 6.9466 2.7129 -73.4855 2.3433 2.3172 -71.5028 1.966 -9.5282 -65.1239 -4.7606 -10.0179 -75.4955 -8.816 -15.033 -79.4922 -13.7152 -0.6567 -25.4146 -2.4037 -7.8291 -38.6699 -2.7958 -6.1738 -33.5048 -1.8198 12.1224 -22.1547 -0.0349 -0.0039 0.0019 -23.923 -0.0042 0.0028 -51.1302 0.0433 0.0017 0.2353 8.1358 20.9886 4.4515 0.1054 0 0 9.4027 41.4386 -3.8191 0.2667 -0.0011 0 -4.6614 5.6039 -63.0704 0.2817 0 0 22.5881 -3.5478 -3.8151 27.6647 63.1944 -32.9423 35.1802 79.1856 -32.1496 9.9482 64.7228 -7.9353 4.0635 48.6446 -4.7548 2.7738 71.0039 -2.3425 2.4803 69.511 -2.0662 -8.1336 62.8354 3.9733 -9.4126 74.8683 8.0545 -13.5832 78.7553 12.1174 -5.5893 42.4828 -1.7322 -20.9276 61.8466 13.0443 -22.207 63.0806 14.1789 12.1293 21.9526 -0.5169 -0.0037 -0.0007 23.0022 -0.007 -0.0039 50.0081 -0.115 0 -0.016 8.5743 -14.7392 -6.9705 0 0 -0.4171 32.0776 -1.9086 0.549 -33.7945 -8.6923 -6.8408 0 -0.1046 -0.0835 0 0 0 0.115 0 -0.016 -12.2149 9.642 20.308 0 0 -0.4171 35.6935 2.9867 -0.9651 -15.6514 -16.9783 25.4021 0 -0.1046 -0.0835 -4.7629 0.0021 0.0042 
0.7602 0.1315 0.9158 -4.4162 4.4081 -29.6244 0 -0.0004 0.0998 10.0449 1.0729 0.2648 0.0001 -0.0015 0.1527 13.5805 2.0571 1.1761 0 0.0017 0.2922 -0.0092 1.1657 13.5011 -31.1545 -2.9203 13.5172 -0.0433 0.0017 0.2353 7.7787 -20.7505 -1.2161 -0.1055 0 0 12.6874 -40.917 25.2198 -0.2672 0 0 -8.0606 -3.8216 39.0234 -0.2831 0 0 24.2659 0.3879 16.8671 28.2595 -63.7493 33.6832 35.3742 -79.615 32.4468 9.5594 -64.772 7.6286 5.271 -53.005 6.946 2.7127 -73.4847 2.3431 2.3169 -71.5013 1.9657 -9.5283 -65.1238 -4.761 -10.0179 -75.4954 -8.8159 -15.0329 -79.4921 -13.7151 -0.6555 -25.4128 -2.4122 -7.8279 -38.6663 -2.795 -6.1715 -33.4973 -1.8185 12.1224 -22.1547 -0.0349 -0.0039 0.0019 -23.923 -0.0042 0.0028 -51.1302 0.0433 0.0017 0.2353 8.1096 20.9518 4.2355 0.1054 0 0 9.5963 41.4538 -4.7653 0.2668 -0.0011 0 -4.7403 5.4766 -62.6353 0.2817 0 0 22.7927 -3.5383 -3.8183 27.6647 63.1945 -32.9424 35.1802 79.1856 -32.1495 9.9482 64.7228 -7.9353 4.0633 48.6437 -4.7546 2.7731 71.0006 -2.3418 2.4802 69.5105 -2.0662 -8.1339 62.8355 3.9741 -9.4122 74.8677 8.054 -13.5829 78.755 12.1171 -5.5895 42.4827 -1.7294 -20.9248 61.8438 13.0419 -22.2079 63.0815 14.1797 12.1293 21.9526 -0.5169 -0.0037 -0.0007 23.0023 -0.007 -0.0039 50.0081 -0.115 0 -0.016 7.4965 -14.2441 -7.0568 0 0 -0.4171 32.408 -2.078 0.6041 -34.2439 -5.8096 -6.6498 0 -0.1046 -0.0835 0 0 0 0.115 0 -0.016 -13.5788 10.0135 20.3133 0 0 -0.4171 36.3718 2.9539 -0.9756 -14.085 -15.8089 25.5726 0 -0.1046 -0.0835 -5.8937 0.0049 0.0126 
0.7686 0.1341 0.9165 -4.3293 4.2795 -29.5416 0 -0.0004 0.0999 10.0055 1.1325 0.2937 0.0001 -0.0015 0.1527 13.5217 2.0978 1.2822 0 0.0017 0.2922 -0.0197 1.0888 13.421 -31.0173 -2.8193 13.4247 -0.0433 0.0017 0.2353 7.7976 -20.7774 -1.2259 -0.1055 0 0 12.6812 -40.9853 25.3334 -0.2672 0 0 -8.1358 -3.8409 38.5875 -0.2831 0 0 24.1609 0.7552 17.117 28.2595 -63.7493 33.6833 35.3743 -79.615 32.4468 9.5594 -64.772 7.6286 5.2706 -53.0041 6.9448 2.7124 -73.483 2.3428 2.3165 -71.4988 1.9653 -9.5285 -65.1237 -4.7614 -10.0177 -75.4951 -8.8157 -15.0324 -79.4919 -13.7146 -0.6532 -25.4095 -2.4274 -7.8256 -38.6599 -2.7936 -6.1675 -33.4839 -1.8163 12.1224 -22.1547 -0.0349 -0.0039 0.0019 -23.923 -0.0042 0.0028 -51.1302 0.0433 0.0017 0.2353 8.0566 20.892 4.167 0.1054 0 0 9.6239 41.3395 -5.1594 0.2668 -0.0011 0 -4.8292 5.3558 -62.4292 0.2818 0 0 22.893 -3.4226 -3.7654 27.6647 63.1944 -32.9423 35.18 79.1856 -32.1492 9.9483 64.7228 -7.9353 4.0628 48.6417 -4.7541 2.7716 70.9935 -2.3404 2.48 69.5092 -2.066 -8.1348 62.8356 3.976 -9.4112 74.8665 8.053 -13.5822 78.7546 12.1164 -5.5901 42.4824 -1.723 -20.919 61.8379 13.0368 -22.2092 63.0827 14.1809 12.1292 21.9526 -0.5169 -0.0037 -0.0007 23.0023 -0.007 -0.0039 50.0081 -0.115 0 -0.016 6.9761 -13.9291 -7.1405 0 0 -0.4171 32.2855 -2.2324 0.6471 -34.4192 -3.1449 -6.5725 0 -0.1046 -0.0835 0 0 0 0.115 0 -0.016 -15.7179 9.8818 20.3694 0 0 -0.4171 38.8216 3.056 -1.0903 -12.8072 -14.2466 25.9629 0 -0.1046 -0.0835 -6.686 0.0051 0.014 
